<svg width="108" height="98" viewBox="0 0 108 98" fill="none" xmlns="http://www.w3.org/2000/svg">
<path opacity="0.8" d="M83.8729 85.766C82.7015 85.7648 81.5639 85.373 80.6405 84.6525C79.7171 83.932 79.0605 82.924 78.7749 81.7883L76.8988 74.2741L69.3662 72.2509C68.2375 71.943 67.2436 71.2679 66.5416 70.3322C65.8396 69.3965 65.4696 68.2536 65.4901 67.0842C65.5105 65.9147 65.9202 64.7854 66.6544 63.8748C67.3886 62.9642 68.4055 62.3242 69.5443 62.0559L76.9089 60.3503L78.7809 52.9615C79.0697 51.8286 79.7277 50.8242 80.6511 50.1068C81.5744 49.3894 82.7105 49 83.8799 49C85.0494 49 86.1855 49.3894 87.1088 50.1068C88.0322 50.8242 88.6902 51.8286 88.9789 52.9615L90.8388 60.413L98.2925 62.2784C99.4257 62.5671 100.43 63.2249 101.148 64.148C101.866 65.0711 102.255 66.2069 102.255 67.3759C102.255 68.545 101.866 69.6808 101.148 70.6039C100.43 71.527 99.4257 72.1848 98.2925 72.4734L90.8388 74.3388L88.9789 81.7903C88.6926 82.927 88.0346 83.9355 87.1096 84.6557C86.1845 85.376 85.0454 85.7667 83.8729 85.766Z" fill="#E0E9FB" fill-opacity="0.9"/>
<path d="M51.707 47.8511C50.7348 47.852 49.7846 47.5543 48.9792 46.9962C48.1737 46.4381 47.5499 45.6454 47.1883 44.7204L43.0834 34.1882L32.7944 29.746C31.9108 29.3469 31.162 28.6889 30.6422 27.8547C30.1225 27.0205 29.8549 26.0475 29.8732 25.0579C29.8915 24.0683 30.1948 23.1063 30.745 22.2929C31.2952 21.4795 32.0678 20.8511 32.9655 20.4865L43.1133 16.5441L47.1843 6.11587C47.559 5.20492 48.1874 4.42746 48.991 3.8808C49.7946 3.33415 50.7376 3.04257 51.7021 3.04257C52.6665 3.04257 53.6095 3.33415 54.4131 3.8808C55.2167 4.42746 55.8452 5.20492 56.2198 6.11587L60.3107 16.5849L70.5242 20.7782C71.4151 21.16 72.176 21.8034 72.7112 22.6274C73.2464 23.4513 73.5319 24.4191 73.5319 25.4089C73.5319 26.3988 73.2464 27.3666 72.7112 28.1905C72.176 29.0145 71.4151 29.6579 70.5242 30.0397L60.3147 34.233L56.2258 44.7C55.8673 45.6288 55.2448 46.4259 54.4391 46.9878C53.6334 47.5496 52.6815 47.8504 51.707 47.8511Z" fill="#E0E9FB"/>
<path d="M41.9439 97.2553C41.1751 97.2556 40.4284 96.9988 39.8224 96.5259C39.2163 96.0529 38.7858 95.3909 38.5993 94.6451L37.3541 89.7159L32.415 88.3889C31.6742 88.1876 31.0218 87.7447 30.5613 87.1304C30.1007 86.5162 29.8585 85.7658 29.8729 84.9982C29.8874 84.2307 30.1577 83.4899 30.641 82.8934C31.1242 82.2969 31.7929 81.8789 32.5407 81.7056L37.366 80.5861L38.5933 75.7387C38.7796 74.993 39.2099 74.3309 39.8158 73.8578C40.4216 73.3847 41.1682 73.1277 41.9369 73.1277C42.7056 73.1277 43.4522 73.3847 44.0581 73.8578C44.6639 74.3309 45.0942 74.993 45.2805 75.7387L46.5018 80.626L51.389 81.8493C52.1347 82.0356 52.7968 82.4659 53.2699 83.0717C53.743 83.6776 54 84.4242 54 85.1929C54 85.9616 53.743 86.7082 53.2699 87.3141C52.7968 87.9199 52.1347 88.3502 51.389 88.5365L46.5018 89.7599L45.2805 94.6471C45.0939 95.3912 44.6645 96.0518 44.0601 96.5242C43.4557 96.9966 42.711 97.2539 41.9439 97.2553Z" fill="#E0E9FB"/>
<circle opacity="0.8" cx="90.7659" cy="7.63831" r="6.89362" fill="#E0E9FB" fill-opacity="0.9"/>
<circle opacity="0.8" cx="24.7022" cy="58.766" r="9.76596" fill="#E0E9FB" fill-opacity="0.9"/>
<path d="M100.278 51.6188C101.848 53.1885 104.445 53.2043 105.594 51.305C106.964 49.0411 107.785 46.4662 107.963 43.7876C108.231 39.7607 107.029 35.7733 104.578 32.5664C102.128 29.3595 98.5969 27.1511 94.6411 26.3515C92.0098 25.8197 89.3096 25.9352 86.7653 26.6618C84.6307 27.2714 83.9636 29.7812 85.0656 31.7082C86.1676 33.6352 88.6652 34.1904 90.8819 34.0723C91.6026 34.0339 92.3305 34.0859 93.0484 34.231C95.0955 34.6447 96.9227 35.7875 98.1906 37.447C99.4585 39.1065 100.081 41.1698 99.9422 43.2536C99.8935 43.9844 99.7524 44.7004 99.526 45.3857C98.8294 47.4934 98.7088 50.0492 100.278 51.6188Z" fill="#E0E9FB"/>
<path opacity="0.8" d="M11.2521 13.3578C10.4447 11.3021 8.06943 10.2516 6.33061 11.6132C4.54499 13.0114 3.11505 14.8418 2.1922 16.9584C0.730765 20.3102 0.660705 24.1053 1.99743 27.5088C3.33416 30.9124 5.96818 33.6455 9.32004 35.1069C11.4366 36.0297 13.73 36.3978 15.9899 36.2071C18.1905 36.0215 19.2161 33.6353 18.4087 31.5797C17.6014 29.524 15.1275 28.6583 13.0287 27.9709C12.8557 27.9143 12.6847 27.8492 12.5164 27.7759C11.1089 27.1622 10.0028 26.0145 9.44144 24.5852C8.88011 23.156 8.90953 21.5623 9.52323 20.1547C9.59661 19.9864 9.67762 19.8225 9.76584 19.6632C10.8359 17.7313 12.0594 15.4134 11.2521 13.3578Z" fill="#E0E9FB" fill-opacity="0.9"/>
</svg>
